<svg width="84" height="19" viewBox="0 0 84 19" fill="none" xmlns="http://www.w3.org/2000/svg">
<path d="M9.476 18.161C7.728 18.161 6.21 17.77 4.922 16.988C3.64933 16.206 2.67567 15.1633 2.001 13.86C1.32633 12.5413 0.989 11.0923 0.989 9.513C0.989 7.84167 1.34933 6.34667 2.07 5.028C2.806 3.70933 3.83333 2.682 5.152 1.946C6.47067 1.19467 7.96567 0.818999 9.637 0.818999C10.3883 0.818999 11.086 0.903332 11.73 1.072C12.3893 1.22533 12.9337 1.40933 13.363 1.624C13.7923 1.82333 14.076 1.992 14.214 2.13L13.087 4.43C12.1517 3.602 10.9327 3.188 9.43 3.188C8.372 3.188 7.41367 3.44867 6.555 3.97C5.69633 4.49133 5.02167 5.235 4.531 6.201C4.04033 7.167 3.795 8.28633 3.795 9.559C3.795 10.7243 4.00967 11.7823 4.439 12.733C4.88367 13.6837 5.52767 14.435 6.371 14.987C7.21433 15.539 8.21867 15.815 9.384 15.815C10.7333 15.815 12.0367 15.4317 13.294 14.665L14.053 16.85C13.7157 17.1567 13.0947 17.4557 12.19 17.747C11.3007 18.023 10.396 18.161 9.476 18.161ZM41.101 18.161C39.353 18.161 37.835 17.77 36.547 16.988C35.2743 16.206 34.3007 15.1633 33.626 13.86C32.9513 12.5413 32.614 11.0923 32.614 9.513C32.614 7.84167 32.9743 6.34667 33.695 5.028C34.431 3.70933 35.4583 2.682 36.777 1.946C38.0957 1.19467 39.5907 0.818999 41.262 0.818999C42.0133 0.818999 42.711 0.903332 43.355 1.072C44.0143 1.22533 44.5587 1.40933 44.988 1.624C45.4173 1.82333 45.701 1.992 45.839 2.13L44.712 4.43C43.7767 3.602 42.5577 3.188 41.055 3.188C39.997 3.188 39.0387 3.44867 38.18 3.97C37.3213 4.49133 36.6467 5.235 36.156 6.201C35.6653 7.167 35.42 8.28633 35.42 9.559C35.42 10.7243 35.6347 11.7823 36.064 12.733C36.5087 13.6837 37.1527 14.435 37.996 14.987C38.8393 15.539 39.8437 15.815 41.009 15.815C42.3583 15.815 43.6617 15.4317 44.919 14.665L45.678 16.85C45.3407 17.1567 44.7197 17.4557 43.815 17.747C42.9257 18.023 42.021 18.161 41.101 18.161ZM61.1137 18.161C59.3657 18.161 57.8477 17.77 56.5597 16.988C55.287 16.206 54.3134 15.1633 53.6387 13.86C52.964 12.5413 52.6267 11.0923 52.6267 9.513C52.6267 7.84167 52.987 6.34667 53.7077 5.028C54.4437 3.70933 55.471 2.682 56.7897 1.946C58.1084 1.19467 59.6034 0.818999 61.2747 0.818999C62.026 0.818999 62.7237 0.903332 63.3677 1.072C64.027 1.22533 64.5714 1.40933 65.0007 1.624C65.43 1.82333 65.7137 1.992 65.8517 2.13L64.7247 4.43C63.7894 3.602 62.5704 3.188 61.0677 3.188C60.0097 3.188 59.0514 3.44867 58.1927 3.97C57.334 4.49133 56.6594 5.235 56.1687 6.201C55.678 7.167 55.4327 8.28633 55.4327 9.559C55.4327 10.7243 55.6474 11.7823 56.0767 12.733C56.5214 13.6837 57.1654 14.435 58.0087 14.987C58.852 15.539 59.8564 15.815 61.0217 15.815C62.371 15.815 63.6744 15.4317 64.9317 14.665L65.6907 16.85C65.3534 17.1567 64.7324 17.4557 63.8277 17.747C62.9384 18.023 62.0337 18.161 61.1137 18.161Z" fill="#0188FD"/>
<path d="M16.7305 1.095H19.3295V15.7H24.1825V18H16.7305V1.095ZM26.9573 1.095H29.5333V18H26.9573V1.095ZM49.8965 18.23C49.4365 18.23 49.0455 18.0767 48.7235 17.77C48.4015 17.448 48.2405 17.057 48.2405 16.597C48.2405 16.1217 48.3939 15.7307 48.7005 15.424C49.0225 15.102 49.4212 14.941 49.8965 14.941C50.3719 14.941 50.7629 15.102 51.0695 15.424C51.3915 15.7307 51.5525 16.1217 51.5525 16.597C51.5525 17.057 51.3915 17.448 51.0695 17.77C50.7629 18.0767 50.3719 18.23 49.8965 18.23ZM75.4459 18.23C73.9126 18.23 72.4943 17.8773 71.1909 17.172C69.9029 16.4513 68.8756 15.4317 68.1089 14.113C67.3423 12.7943 66.9589 11.261 66.9589 9.513C66.9589 7.74967 67.3423 6.21633 68.1089 4.913C68.8756 3.59433 69.9029 2.58233 71.1909 1.877C72.4943 1.17167 73.9126 0.818999 75.4459 0.818999C76.9793 0.818999 78.3899 1.17167 79.6779 1.877C80.9813 2.58233 82.0163 3.59433 82.7829 4.913C83.5496 6.21633 83.9329 7.74967 83.9329 9.513C83.9329 11.261 83.5496 12.7943 82.7829 14.113C82.0163 15.4317 80.9813 16.4513 79.6779 17.172C78.3899 17.8773 76.9793 18.23 75.4459 18.23ZM75.4459 15.907C76.5039 15.907 77.4699 15.6617 78.3439 15.171C79.2179 14.665 79.9079 13.9367 80.4139 12.986C80.9353 12.02 81.1959 10.87 81.1959 9.536C81.1959 8.18667 80.9353 7.03667 80.4139 6.086C79.9079 5.12 79.2179 4.39167 78.3439 3.901C77.4853 3.41033 76.5193 3.165 75.4459 3.165C74.3726 3.165 73.3989 3.41033 72.5249 3.901C71.6509 4.39167 70.9609 5.12 70.4549 6.086C69.9489 7.03667 69.6959 8.18667 69.6959 9.536C69.6959 10.87 69.9566 12.02 70.4779 12.986C70.9993 13.9367 71.6969 14.665 72.5709 15.171C73.4603 15.6617 74.4186 15.907 75.4459 15.907Z" fill="white"/>
</svg>
